# xmcd
# 
# Track frame offsets:
#     150
#     15580
#     37505
#     56870
#     77287
#     98715
#     114082
#     135005
#     153190
#     171935
#     194832
#     213275
#     234072
#     255245
# 
# Disc length: 3669
# 
# Revision: 20
# Processed by: cddbd v1.5.2PL0 Copyright (c) Steve Scherf et al.
# Submitted via: fre:ac v1.0.27
# 
DISCID=940e530e
DTITLE=Sheryl crow - C'mon, C'mon
DYEAR=2002
DGENRE=Folk - Pop
TTITLE0=Steve McQueen
TTITLE1=Soak Up The Sun
TTITLE2=You're An Original
TTITLE3=Safe And Sound
TTITLE4=C'mon C'mon
TTITLE5=It's So Easy
TTITLE6=Over You
TTITLE7=Lucky Kid
TTITLE8=Diamond Road
TTITLE9=It's Only Love
TTITLE10=Abilene
TTITLE11=Hole In My Pocket
TTITLE12=Weather Channel
TTITLE13=Missing
EXTD=
EXTT0=
EXTT1=Guest Vocals: Liz Phair
EXTT2=Guest Vocals: Lenny Kravitz
EXTT3=
EXTT4=Guest Vocals: Stevie Nicks
EXTT5=Guest Vocals: Don Henley
EXTT6=
EXTT7=
EXTT8=
EXTT9=Guest Vocals: Gwyneth Paltrow
EXTT10=Guest Vocals: Natalie Maines
EXTT11=
EXTT12=Guest Vocals: Emmylou Harris
EXTT13=
PLAYORDER=
